<svg width="608" height="451" viewBox="0 0 608 451" fill="none" xmlns="http://www.w3.org/2000/svg">
<path d="M583 225.5C583 278.017 554.358 327.568 504.066 364.874C453.777 402.177 383.125 426 304 426C224.875 426 154.223 402.177 103.934 364.874C53.6417 327.568 25 278.017 25 225.5C25 172.982 53.6417 123.432 103.934 86.1264C154.223 48.823 224.875 25 304 25C383.125 25 453.777 48.823 504.066 86.1264C554.358 123.432 583 172.982 583 225.5Z" stroke="#2AA198" stroke-width="50"/>
<path d="M434.818 212.617C430.579 225.127 416.41 239.316 390.301 250.254C364.681 260.987 331.775 266.717 297.809 265.928C263.814 265.138 232.188 257.899 208.791 246.171C184.941 234.216 174.019 219.974 172.066 208.197" stroke="#2AA198" stroke-width="30"/>
<path d="M218.131 234.349C219.922 229.91 227.544 222.282 245.614 215.923C262.796 209.877 285.078 206.59 308.207 207.041C331.368 207.493 352.726 211.642 368.31 218.203C384.885 225.182 389.628 232.468 390.239 235.562" stroke="#2AA198" stroke-width="30"/>
</svg>
